<svg width="61" height="35" viewBox="0 0 61 35" fill="none" xmlns="http://www.w3.org/2000/svg">
<path d="M0.180625 24.92C1.78063 25.2667 3.18063 25.44 4.38063 25.44H4.82063C5.43396 25.3867 5.84729 25.1467 6.06063 24.72C6.30063 24.2933 6.42063 23.7067 6.42063 22.96V1.48L13.2606 0.879998L17.2606 2.88V26.2C17.2606 31.5067 15.0073 34.36 10.5006 34.76C9.67396 34.84 8.88729 34.88 8.14063 34.88C7.47396 34.88 6.84729 34.8533 6.26063 34.8C5.67396 34.7467 5.15396 34.68 4.70063 34.6L0.660625 32.6L0.180625 24.92ZM6.82063 1.84V22.96C6.82063 23.84 6.67396 24.5333 6.38063 25.04C6.08729 25.52 5.58063 25.7867 4.86063 25.84H4.38063C3.84729 25.84 3.22063 25.8 2.50063 25.72C1.78063 25.64 1.15396 25.5467 0.620625 25.44L1.06063 32.24C1.43396 32.2933 1.87396 32.3467 2.38063 32.4C2.88729 32.4533 3.46063 32.48 4.10063 32.48C4.84729 32.48 5.63396 32.44 6.46063 32.36C10.7273 32.0133 12.8606 29.2933 12.8606 24.2V1.32L6.82063 1.84ZM38.6281 12.08C38.4415 11.6267 38.2415 11.2 38.0281 10.8C37.8415 10.4 37.6415 10.0267 37.4281 9.68C35.5615 9.89333 34.2148 10.8133 33.3881 12.44C32.5615 14.0667 32.1481 16.1867 32.1481 18.8C32.1481 21.68 32.5481 23.8267 33.3481 25.24C33.4281 25.2133 33.5481 25.2 33.7081 25.2C34.5081 25.12 35.1881 24.8267 35.7481 24.32C36.3348 23.7867 36.8281 23.1333 37.2281 22.36C37.6548 21.56 38.0015 20.72 38.2681 19.84L47.9881 24.76C47.0281 27.64 45.7481 29.92 44.1481 31.6C42.5481 33.28 40.3215 34.24 37.4681 34.48C37.2548 34.5067 37.0281 34.52 36.7881 34.52C36.5748 34.52 36.3615 34.52 36.1481 34.52C34.2815 34.52 32.4415 34.1867 30.6281 33.52C28.8415 32.88 27.2281 31.8667 25.7881 30.48C24.3748 29.0933 23.2415 27.32 22.3881 25.16C21.5348 22.9733 21.1081 20.36 21.1081 17.32C21.1081 15.08 21.3881 12.9733 21.9481 11C22.5081 9 23.3215 7.24 24.3881 5.72C25.4815 4.2 26.7881 2.97333 28.3081 2.04C29.8548 1.08 31.6015 0.519999 33.5481 0.36C33.7615 0.333332 33.9748 0.319998 34.1881 0.319998C34.4015 0.319998 34.6148 0.319998 34.8281 0.319998C36.9615 0.319998 38.8948 0.773332 40.6281 1.68C42.3881 2.58667 43.8948 3.78667 45.1481 5.28C46.4281 6.77333 47.4015 8.42666 48.0681 10.24L42.6281 14.08L38.6281 12.08ZM38.5081 20.44C38.2681 21.2133 37.9348 21.9867 37.5081 22.76C37.0815 23.5333 36.5615 24.1867 35.9481 24.72C35.3348 25.2267 34.6015 25.52 33.7481 25.6C33.6415 25.6267 33.5215 25.64 33.3881 25.64C33.2815 25.64 33.1615 25.64 33.0281 25.64C31.3215 25.64 30.0148 24.9467 29.1081 23.56C28.2015 22.1733 27.7481 19.92 27.7481 16.8C27.7481 14 28.2015 11.76 29.1081 10.08C30.0148 8.4 31.4815 7.46667 33.5081 7.28H33.9481C35.2548 7.28 36.2681 7.69333 36.9881 8.52C37.7348 9.34667 38.3348 10.3333 38.7881 11.48L43.5881 8.12C43.1081 6.84 42.4815 5.64 41.7081 4.52C40.9615 3.4 40.0015 2.49333 38.8281 1.8C37.6815 1.08 36.2681 0.719997 34.5881 0.719997C34.4281 0.719997 34.2681 0.719997 34.1081 0.719997C33.9481 0.719997 33.7748 0.733331 33.5881 0.759999C31.6948 0.919999 30.0015 1.46667 28.5081 2.4C27.0148 3.30667 25.7481 4.50667 24.7081 6C23.6681 7.49333 22.8681 9.21333 22.3081 11.16C21.7748 13.08 21.5081 15.1333 21.5081 17.32C21.5081 20.36 21.9481 22.9867 22.8281 25.2C23.7348 27.4133 25.0015 29.12 26.6281 30.32C28.2815 31.52 30.2015 32.12 32.3881 32.12C32.5481 32.12 32.7081 32.12 32.8681 32.12C33.0548 32.12 33.2415 32.1067 33.4281 32.08C36.2015 31.8667 38.3481 30.96 39.8681 29.36C41.4148 27.7333 42.6281 25.6133 43.5081 23L38.5081 20.44Z" fill="black"/>
<path d="M49.8069 32.6V24.76L57.0069 24.12L61.0069 26.12V34L53.8069 34.6L49.8069 32.6ZM50.2069 25.12V32.16L56.6069 31.64V24.56L50.2069 25.12Z" fill="#FBC108"/>
</svg>
