<svg width="30" height="30" viewBox="0 0 30 30" fill="none" xmlns="http://www.w3.org/2000/svg">
<path d="M15 0C6.72882 0 0 6.72882 0 15C0 23.2712 6.72882 30 15 30C23.2712 30 30 23.2712 30 15C30 6.72882 23.2694 0 15 0ZM1.80882 15.8824H6.99176C7.06941 17.6894 7.36412 19.4665 7.89706 21.1765H3.30353C2.45471 19.5776 1.93412 17.7829 1.80882 15.8824ZM6.99176 14.1176H1.80882C1.93412 12.2171 2.45471 10.4224 3.30353 8.82353H7.89176C7.36059 10.5335 7.06765 12.3106 6.99176 14.1176ZM9.76059 8.82353H20.1653C20.7476 10.5265 21.0865 12.3035 21.1694 14.1176H8.75647C8.83765 12.3035 9.17824 10.5265 9.76059 8.82353ZM8.75647 15.8824H21.1712C21.0847 17.6965 20.7459 19.4735 20.1618 21.1765H9.76588C9.18177 19.4735 8.84118 17.6965 8.75647 15.8824ZM22.9359 15.8824H28.1912C28.0659 17.7829 27.5453 19.5776 26.6965 21.1765H22.0306C22.5635 19.4665 22.8582 17.6894 22.9359 15.8824ZM22.9359 14.1176C22.86 12.3106 22.5671 10.5335 22.0359 8.82353H26.6965C27.5435 10.4224 28.0641 12.2171 28.1912 14.1176H22.9359ZM25.5635 7.05882H21.4094C20.7176 5.37353 19.7929 3.78 18.6741 2.29412C21.4588 3.10059 23.8588 4.8 25.5635 7.05882ZM15.9847 1.81412C17.4388 3.39706 18.6035 5.16706 19.4647 7.05882H10.4612C11.3206 5.16882 12.4835 3.40059 13.9376 1.81765C14.2888 1.79118 14.64 1.76471 15 1.76471C15.3318 1.76471 15.6582 1.79118 15.9847 1.81412ZM11.2359 2.31706C10.1259 3.79588 9.20471 5.38235 8.51824 7.05882H4.43471C6.12 4.82294 8.48824 3.13412 11.2359 2.31706ZM4.43471 22.9412H8.52353C9.21353 24.6194 10.1382 26.2076 11.2535 27.6865C8.49882 26.8729 6.12353 25.1824 4.43471 22.9412ZM13.9588 28.1824C12.5012 26.5994 11.3329 24.8312 10.4682 22.9412H19.4576C18.5929 24.8329 17.4247 26.6029 15.9653 28.1859C15.6459 28.2088 15.3247 28.2353 15 28.2353C14.6471 28.2353 14.3029 28.2088 13.9588 28.1824ZM18.6547 27.7112C19.7771 26.2253 20.7088 24.6282 21.4024 22.9412H25.5635C23.8553 25.2053 21.4482 26.9065 18.6547 27.7112Z" fill="black"/>
</svg>
