<svg width="118" height="120" viewBox="0 0 118 120" fill="none" xmlns="http://www.w3.org/2000/svg">
<path d="M94.4019 42.3563C93.2307 41.9469 92.0511 41.5656 90.8631 41.2125C91.0601 40.3922 91.2418 39.5672 91.4082 38.7375C94.0881 25.4016 92.3359 14.6578 86.3554 11.1211C80.6292 7.72737 71.2382 11.2641 61.7648 19.7203C60.8333 20.5547 59.9209 21.4141 59.0277 22.2985C58.4321 21.711 57.8213 21.136 57.1953 20.5735C47.266 11.5313 37.3139 7.72268 31.3403 11.2711C25.6141 14.6719 23.9123 24.7711 26.3241 37.411C26.5654 38.661 26.8364 39.9055 27.1373 41.1446C25.7684 41.5416 24.4111 41.9793 23.0671 42.4571C11.4406 46.6172 4.00568 53.1399 4.00568 59.9039C4.00568 66.893 11.9857 73.9008 24.1092 78.15C25.0926 78.4922 26.0852 78.8102 27.0869 79.1039C26.7616 80.4305 26.4738 81.7719 26.2234 83.1282C23.9329 95.55 25.7195 105.41 31.4342 108.79C37.3368 112.28 47.2385 108.694 56.8906 100.045C57.6541 99.361 58.4176 98.6383 59.1811 97.8774C60.1462 98.8321 61.1387 99.7586 62.1588 100.657C71.5039 108.902 80.7323 112.233 86.4379 108.844C92.3359 105.342 94.253 94.7485 91.7632 81.8602C91.5724 80.8758 91.3525 79.8711 91.1036 78.8461C91.7999 78.6352 92.4817 78.4172 93.149 78.1922C105.747 73.9102 113.953 66.9867 113.953 59.911C113.949 53.1141 106.276 46.5492 94.4019 42.3563ZM64.8546 23.3532C72.9698 16.1086 80.5559 13.2492 84.0145 15.293C87.6953 17.4703 89.1269 26.25 86.8135 37.7649C86.6608 38.5149 86.4959 39.2625 86.3188 40.0078C81.4758 38.8807 76.5648 38.0851 71.6184 37.6266C68.7863 33.4521 65.6818 29.4782 62.326 25.7321C63.1475 24.9164 63.9888 24.1235 64.8501 23.3532H64.8546ZM36.4687 65.6836C37.4628 67.6524 38.5019 69.5969 39.586 71.5172C40.69 73.4766 41.8406 75.4071 43.0378 77.3086C39.6343 76.93 36.2521 76.3722 32.9047 75.6375C33.8759 72.4219 35.0715 69.0821 36.4687 65.6836ZM36.4687 54.3563C35.0944 51.0305 33.9308 47.7586 32.9757 44.5992C36.1137 43.8797 39.4578 43.2914 42.9439 42.8461C41.7757 44.7117 40.6519 46.6047 39.5723 48.525C38.4927 50.4453 37.4559 52.3891 36.4618 54.3563H36.4687ZM38.9653 60.0211C40.4129 56.9321 41.972 53.9024 43.6425 50.9321C45.3115 47.9633 47.0881 45.0625 48.9724 42.2297C52.2432 41.9766 55.5965 41.843 58.9841 41.843C62.3718 41.843 65.7457 41.9766 69.0142 42.2321C70.8786 45.0586 72.6446 47.9492 74.312 50.9039C75.9795 53.8586 77.5592 56.8742 79.0511 59.9508C77.579 63.0508 76.0032 66.093 74.3235 69.0774C72.6576 72.0461 70.9015 74.9555 69.0554 77.8055C65.7915 78.0399 62.413 78.1688 58.9773 78.1688C55.5415 78.1688 52.2272 78.0586 49.0228 77.8453C47.1248 75.0032 45.3336 72.0899 43.6494 69.1055C41.9651 66.1211 40.4015 63.093 38.9584 60.0211H38.9653ZM78.3891 71.4844C79.4962 69.5188 80.559 67.5274 81.5775 65.5102C82.9736 68.7495 84.206 72.0601 85.2697 75.4289C81.8829 76.2093 78.4586 76.8078 75.0107 77.2219C76.1742 75.3328 77.3004 73.4203 78.3891 71.4844ZM81.5317 54.3586C80.5177 52.3821 79.4633 50.4289 78.3685 48.4992C77.2996 46.5961 76.1857 44.7164 75.0267 42.8602C78.5334 43.3149 81.8981 43.9196 85.0521 44.6578C84.0381 47.9497 82.8631 51.1874 81.5317 54.3586ZM59.03 29.175C61.3171 31.7323 63.4767 34.406 65.5006 37.186C61.1716 36.975 56.8395 36.975 52.5044 37.186C54.6414 34.2938 56.8288 31.6102 59.03 29.175ZM33.7041 15.436C37.3826 13.2516 45.5161 16.3735 54.0894 24.1711C54.6368 24.6703 55.1888 25.193 55.7385 25.7344C52.3655 29.48 49.239 33.4504 46.3796 37.6196C41.4442 38.0746 36.5429 38.8575 31.7068 39.9633C31.4273 38.8133 31.1754 37.6555 30.9509 36.4899C28.878 25.6547 30.25 17.4867 33.7041 15.436ZM28.3421 74.4633C27.4259 74.1961 26.5211 73.9063 25.6278 73.5938C20.2681 71.7188 15.8406 69.2719 12.8011 66.6071C10.08 64.2188 8.70117 61.8352 8.70117 59.9039C8.70117 55.8 14.6702 50.5641 24.6246 47.0133C25.8752 46.568 27.1365 46.161 28.4085 45.7922C29.8869 50.6538 31.6773 55.4103 33.7682 60.0305C31.6524 64.7146 29.8398 69.5359 28.3421 74.4633ZM53.7962 96.4172C49.529 100.242 45.255 102.954 41.4871 104.32C38.1018 105.546 35.4059 105.581 33.7774 104.618C30.3096 102.567 28.8666 94.6477 30.8341 84.0258C31.0677 82.7758 31.335 81.5258 31.6358 80.2758C36.5203 81.3525 41.4708 82.0878 46.4529 82.4766C49.3402 86.6674 52.4925 90.6604 55.8897 94.4297C55.2071 95.1164 54.5085 95.7774 53.7962 96.4172ZM59.1605 90.975C56.9342 88.5117 54.7124 85.786 52.5456 82.8563C54.6513 82.9407 56.7952 82.9828 58.9773 82.9828C61.2174 82.9828 63.4345 82.9336 65.6197 82.8328C63.6032 85.6574 61.4473 88.375 59.1605 90.975ZM87.6816 97.6758C87.0265 101.295 85.7095 103.709 84.081 104.674C80.6155 106.732 73.2057 104.058 65.2165 97.0055C64.3004 96.1992 63.3842 95.3344 62.4519 94.4274C65.783 90.6433 68.8614 86.6343 71.6665 82.4274C76.6762 81.9931 81.6507 81.206 86.5547 80.0719C86.7792 81 86.9777 81.9094 87.1502 82.8C88.2519 88.4953 88.41 93.6469 87.6816 97.6758ZM91.667 73.6196C91.0669 73.8235 90.4485 74.0203 89.8209 74.2125C88.2832 69.328 86.4229 64.5561 84.2527 59.9297C86.3415 55.365 88.129 50.6623 89.6033 45.8531C90.7279 46.1883 91.8205 46.5399 92.8718 46.9125C103.046 50.5032 109.253 55.8188 109.253 59.9039C109.253 64.2633 102.549 69.9211 91.667 73.6196Z" fill="white"/>
<path d="M58.9773 69.9726C60.9266 69.9791 62.8339 69.3936 64.4578 68.2901C66.0817 67.1867 67.3491 65.615 68.0994 63.774C68.8498 61.933 69.0494 59.9057 68.673 57.9485C68.2966 55.9914 67.3611 54.1926 65.985 52.7799C64.6089 51.3671 62.854 50.404 60.9426 50.0125C59.0312 49.6209 57.0492 49.8186 55.2477 50.5804C53.4461 51.3422 51.906 52.6339 50.8224 54.292C49.7387 55.95 49.1602 57.8998 49.1602 59.8945C49.1575 61.216 49.4094 62.5251 49.9014 63.7469C50.3934 64.9688 51.1159 66.0794 52.0276 67.0154C52.9393 67.9513 54.0223 68.6943 55.2148 69.2017C56.4073 69.7091 57.6858 69.9711 58.9773 69.9726Z" fill="url(#paint0_linear_24_159)"/>
<defs>
<linearGradient id="paint0_linear_24_159" x1="59.0093" y1="49.8164" x2="59.0093" y2="69.9727" gradientUnits="userSpaceOnUse">
<stop stop-color="#B3FFE4"/>
<stop offset="1" stop-color="#C4FF41"/>
</linearGradient>
</defs>
</svg>
